<?xml version="1.0" standalone="no"?>
<!DOCTYPE svg PUBLIC "-//W3C//DTD SVG 20010904//EN"
 "http://www.w3.org/TR/2001/REC-SVG-20010904/DTD/svg10.dtd">
<svg version="1.0" xmlns="http://www.w3.org/2000/svg"
 width="150.000000pt" height="150.000000pt" viewBox="0 0 150.000000 150.000000"
 preserveAspectRatio="xMidYMid meet">
<metadata>
Created by potrace 1.14, written by Peter Selinger 2001-2017
</metadata>
<g transform="translate(0.000000,150.000000) scale(0.100000,-0.100000)"
fill="#000000" stroke="none">
<path d="M530 1398 c21 -9 22 -12 8 -15 -10 -3 -18 -11 -18 -20 0 -10 -6 -14
-20 -10 -13 3 -20 0 -20 -9 0 -19 -80 -134 -94 -134 -24 0 -40 -18 -29 -32 8
-10 -12 -44 -83 -143 -51 -71 -93 -133 -94 -137 0 -5 10 -8 23 -8 31 0 50 -15
54 -42 10 -59 20 -153 18 -156 -2 -2 -28 1 -58 8 -66 13 -140 16 -185 6 l-32
-8 0 -253 0 -254 28 8 c43 12 191 5 262 -13 36 -9 101 -28 145 -41 81 -24 185
-45 221 -45 11 0 37 10 59 21 48 26 107 47 149 54 47 8 122 34 201 70 52 24
81 45 106 77 19 23 44 51 56 61 13 10 35 40 50 65 15 26 37 61 50 78 13 17 23
34 23 38 0 4 19 27 43 49 45 44 53 80 30 122 -20 36 -109 26 -153 -16 -54 -51
-53 -52 -45 61 8 116 9 122 33 119 53 -5 51 1 -33 131 -34 52 -93 142 -130
200 -37 58 -69 107 -71 109 -3 4 -149 9 -287 10 -53 1 -76 5 -75 13 2 6 -8 15
-22 19 -25 7 -25 7 4 8 59 2 13 15 -62 17 -63 2 -72 1 -52 -8z m70 -18 c0 -5
-7 -7 -15 -4 -8 4 -12 10 -9 15 6 11 24 2 24 -11z"/>
</g>
</svg>
